<svg id="Isolation_Mode" data-name="Isolation Mode" xmlns="http://www.w3.org/2000/svg" viewBox="0 0 1198.93 176"><defs><style>#newBlue{ stroke-dashoffset:-1381px;stroke-dasharray:1381px;animation:draw 3s forwards 0.75s; animation-timing-function: ease-in-out;} @keyframes draw { from {stroke-dashoffset:-1381px;} to { stroke-dashoffset:0;}} .cls-1,.cls-4{fill:#414141;}.cls-2{fill:#3499cc;}.cls-3,.cls-5{fill:none;}.cls-3,.cls-4{stroke:#414141;}.cls-3{stroke-miterlimit:10;stroke-width:3.8px;}.cls-4{stroke-width:4px;}.cls-5{stroke:#3499cc;stroke-width:5px;}</style></defs><g id="discover-svg"><g id="Group_12934" data-name="Group 12934"><g id="Group_12933" data-name="Group 12933"><g id="Group_12932" data-name="Group 12932"><g id="Group_12928" data-name="Group 12928"><path id="Path_18053" data-name="Path 18053" class="cls-1" d="M216.82,36.6h-8.58V31.45a8.58,8.58,0,0,0-8.58-8.58H103.55A8.58,8.58,0,0,0,95,31.45V36.6H86.39a5.15,5.15,0,0,0-5.15,5.15V62.34a5.15,5.15,0,0,0,5.15,5.15H95v56.64a5.17,5.17,0,0,0,5.15,5.15h3.43v6.58A5.15,5.15,0,0,0,108.7,141H119a5.15,5.15,0,0,0,5.15-5.14v-6.59h54.91v6.58a5.16,5.16,0,0,0,5.16,5.15h10.3a5.14,5.14,0,0,0,5.14-5.14v-6.59h3.44a5.14,5.14,0,0,0,5.14-5.14V67.49h8.59A5.15,5.15,0,0,0,222,62.34V41.74A5.15,5.15,0,0,0,216.82,36.6ZM95,64.06H86.39a1.73,1.73,0,0,1-1.72-1.72V41.74A1.71,1.71,0,0,1,86.39,40H95Zm25.74,71.8a1.72,1.72,0,0,1-1.71,1.71H108.7a1.72,1.72,0,0,1-1.72-1.71v-6.59h13.73Zm75.52,0a1.72,1.72,0,0,1-1.72,1.71h-10.3a1.72,1.72,0,0,1-1.71-1.71v-6.59h13.73Zm8.58-11.73a1.72,1.72,0,0,1-1.72,1.71h-103a1.72,1.72,0,0,1-1.72-1.71V31.45a5.16,5.16,0,0,1,5.15-5.15h96.11a5.16,5.16,0,0,1,5.15,5.15Zm13.73-61.79a1.72,1.72,0,0,1-1.72,1.72h-8.58V40h8.58a1.72,1.72,0,0,1,1.72,1.72Z" transform="translate(0.01 0)"/><path id="Path_18054" data-name="Path 18054" class="cls-1" d="M110.42,88.08H192.8a1.72,1.72,0,0,0,0-3.43H110.42a1.72,1.72,0,1,0,0,3.43Z" transform="translate(0.01 0)"/><path id="Path_18055" data-name="Path 18055" class="cls-1" d="M110.42,95H192.8a1.72,1.72,0,0,0,0-3.43H110.42a1.72,1.72,0,1,0,0,3.43Z" transform="translate(0.01 0)"/><path id="Path_18056" data-name="Path 18056" class="cls-1" d="M110.42,101.81H192.8a1.72,1.72,0,0,0,0-3.43H110.42a1.72,1.72,0,1,0,0,3.43Z" transform="translate(0.01 0)"/><path id="Path_18057" data-name="Path 18057" class="cls-1" d="M206.53,21.29a1.72,1.72,0,0,0,1.71-1.72V4a1.72,1.72,0,0,0-1.71-1.72H96.69A1.72,1.72,0,0,0,95,4V19.57a1.72,1.72,0,1,0,3.43,0V5.7H204.81V19.57A1.72,1.72,0,0,0,206.53,21.29Z" transform="translate(0.01 0)"/><g id="Group_12927" data-name="Group 12927"><path id="Path_18074" data-name="Path 18074" class="cls-2" d="M180.78,108.68h17.16V119H180.78Z" transform="translate(0.01 0)"/><path id="Path_18073" data-name="Path 18073" class="cls-2" d="M105.27,108.68h17.16V119H105.27Z" transform="translate(0.01 0)"/><path id="Path_18058" data-name="Path 18058" class="cls-2" d="M196.23,33.16H107a1.72,1.72,0,0,0-1.71,1.72v36h25.34l-6.87-3.43H110.42a1.72,1.72,0,1,1,0-3.43h34.32a1.72,1.72,0,1,1,0,3.43H131.41l6.87,3.43h40.38l-6.86-3.43H158.47a1.72,1.72,0,0,1,0-3.43H192.8a1.72,1.72,0,0,1,0,3.43H179.47l6.86,3.43h11.61v-36A1.72,1.72,0,0,0,196.23,33.16Z" transform="translate(0.01 0)"/><path id="Path_18059" data-name="Path 18059" class="cls-1" d="M196.23,29.73H107a5.15,5.15,0,0,0-5.14,5.15V72.64a1.71,1.71,0,0,0,1.71,1.72h96.11a1.72,1.72,0,0,0,1.72-1.72V34.88A5.16,5.16,0,0,0,196.23,29.73ZM198,70.92H186.33l-6.86-3.43H192.8a1.72,1.72,0,0,0,0-3.43H158.47a1.72,1.72,0,0,0,0,3.43H171.8l6.86,3.43H138.28l-6.87-3.43h13.33a1.72,1.72,0,1,0,0-3.43H110.42a1.72,1.72,0,1,0,0,3.43h13.32l6.87,3.43H105.27v-36A1.72,1.72,0,0,1,107,33.16h89.25a1.72,1.72,0,0,1,1.71,1.72Z" transform="translate(0.01 0)"/><path id="Path_18060" data-name="Path 18060" class="cls-1" d="M124.15,105.25h-20.6a1.72,1.72,0,0,0-1.71,1.71v13.73a1.72,1.72,0,0,0,1.71,1.72h20.6a1.72,1.72,0,0,0,1.72-1.72V107A1.71,1.71,0,0,0,124.15,105.25ZM122.43,119H105.27v-10.3h17.16Z" transform="translate(0.01 0)"/><path id="Path_18061" data-name="Path 18061" class="cls-1" d="M199.66,105.25h-20.6a1.72,1.72,0,0,0-1.71,1.71v13.73a1.72,1.72,0,0,0,1.71,1.72h20.6a1.72,1.72,0,0,0,1.72-1.72V107A1.72,1.72,0,0,0,199.66,105.25ZM198,119H180.78v-10.3H198Z" transform="translate(0.01 0)"/></g><path id="Path_18062" data-name="Path 18062" class="cls-1" d="M168.77,108.68H134.44a1.71,1.71,0,0,0-1.71,1.72v6.86a1.71,1.71,0,0,0,1.71,1.72h34.33a1.72,1.72,0,0,0,1.71-1.72V110.4A1.71,1.71,0,0,0,168.77,108.68Zm-1.72,6.86H136.16v-3.43h30.89Z" transform="translate(0.01 0)"/></g><g id="Group_12930" data-name="Group 12930"><g id="Group_12929" data-name="Group 12929"><path id="Path_18064" data-name="Path 18064" class="cls-1" d="M668.92,35,600.27.71a2,2,0,0,0-1.54,0L530.08,35a1.73,1.73,0,0,0-1,1.54V52a1.72,1.72,0,0,0,1.73,1.71,1.7,1.7,0,0,0,.76-.18L536,51.3v88.27a1.72,1.72,0,1,0,3.43,0v-90l60.07-30,60.07,30v90a1.72,1.72,0,1,0,3.43,0V51.3l4.38,2.19a1.72,1.72,0,0,0,2.31-.77,1.84,1.84,0,0,0,.18-.76V36.58A1.73,1.73,0,0,0,668.92,35Zm-2.48,14.14L600.27,16.09a1.94,1.94,0,0,0-1.53,0L532.57,49.18V37.64L599.5,4.17l66.94,33.47Z" transform="translate(0.01 0)"/></g><path id="Path_18065" data-name="Path 18065" class="cls-1" d="M577.19,107H546.3a1.71,1.71,0,0,0-1.72,1.71v30.9a1.72,1.72,0,0,0,1.72,1.72h30.89a1.72,1.72,0,0,0,1.72-1.72v-30.9A1.71,1.71,0,0,0,577.19,107Zm-1.72,30.9H548V110.39h27.46Z" transform="translate(0.01 0)"/><path id="Path_18066" data-name="Path 18066" class="cls-1" d="M652.7,107H621.81a1.71,1.71,0,0,0-1.71,1.71v30.9a1.72,1.72,0,0,0,1.71,1.72H652.7a1.72,1.72,0,0,0,1.72-1.72v-30.9A1.71,1.71,0,0,0,652.7,107ZM651,137.86H623.53V110.39H651Z" transform="translate(0.01 0)"/><path id="Path_18067" data-name="Path 18067" class="cls-1" d="M615,107h-30.9a1.71,1.71,0,0,0-1.71,1.71v30.9a1.72,1.72,0,0,0,1.71,1.72H615a1.72,1.72,0,0,0,1.71-1.72v-30.9A1.71,1.71,0,0,0,615,107Zm-1.72,30.9H585.77V110.39h27.46Z" transform="translate(0.01 0)"/><path id="Path_18068" data-name="Path 18068" class="cls-1" d="M577.19,69.19H546.3a1.72,1.72,0,0,0-1.72,1.72v30.9a1.71,1.71,0,0,0,1.72,1.71h30.89a1.71,1.71,0,0,0,1.72-1.71V70.91A1.72,1.72,0,0,0,577.19,69.19Zm-1.72,30.9H548V72.62h27.46Z" transform="translate(0.01 0)"/><path id="Path_18069" data-name="Path 18069" class="cls-1" d="M652.7,69.19H621.81a1.72,1.72,0,0,0-1.71,1.72v30.9a1.71,1.71,0,0,0,1.71,1.71H652.7a1.71,1.71,0,0,0,1.72-1.71V70.91A1.72,1.72,0,0,0,652.7,69.19ZM651,100.09H623.53V72.62H651Z" transform="translate(0.01 0)"/><path id="Path_18070" data-name="Path 18070" class="cls-1" d="M615,69.19h-30.9a1.72,1.72,0,0,0-1.71,1.72v30.9a1.71,1.71,0,0,0,1.71,1.71H615a1.7,1.7,0,0,0,1.71-1.71V70.91A1.71,1.71,0,0,0,615,69.19Zm-1.72,30.9H585.77V72.62h27.46Z" transform="translate(0.01 0)"/></g><g id="Group_12931" data-name="Group 12931"><path id="Path_18071" data-name="Path 18071" class="cls-2" d="M1062.19,36a1.73,1.73,0,0,1-1.72,1.72,1.7,1.7,0,0,1-1.21-.5l-5.65-5.66L1048,37.26a1.71,1.71,0,0,1-2.42,0h0l-5.65-5.66-5.65,5.66a1.72,1.72,0,0,1-2.43,0,1.68,1.68,0,0,1-.5-1.22V3.43h-36v103h78.21a3.28,3.28,0,0,0,.65-1.11l-16-16.43a1.72,1.72,0,0,1-.1-2.28l5.14-6.39a1.72,1.72,0,0,1,2.3-.34l32.81,22.38V3.43h-36Z" transform="translate(0.01 0)"/><path id="Path_18072" data-name="Path 18072" class="cls-1" d="M1105.7,107.41a1.6,1.6,0,0,0-.33-.3l-3.71-2.53V1.72A1.72,1.72,0,0,0,1099.94,0H993.54a1.72,1.72,0,0,0-1.72,1.71h0v106.4a1.72,1.72,0,0,0,1.72,1.72h17.75l22.41,16.82a1.87,1.87,0,0,0,.39.22l34.32,13.73a1.72,1.72,0,1,0,1.33-3.17l0,0-34.11-13.65L1017,109.84h18l20.16,7.37a1.56,1.56,0,0,0,.93.07c.58-.11,14.08-2.9,19.23-7.91a6.41,6.41,0,0,0,2.26-4.68,1.69,1.69,0,0,0-.49-1.2l-15.55-15.93,3.2-4,38.47,26.24,26.28,30.31a1.72,1.72,0,1,0,2.6-2.24h0Zm-71-104h24V31.9L1054.82,28a1.72,1.72,0,0,0-2.43,0l-5.65,5.65L1041.09,28a1.71,1.71,0,0,0-2.42,0l-3.94,3.94Zm21.2,110.39-10.9-4h23.27a65.59,65.59,0,0,1-12.37,4Zm42.3-11.58-32.81-22.38a1.72,1.72,0,0,0-2.3.34L1058,86.59a1.72,1.72,0,0,0,.11,2.28l16,16.43a3.42,3.42,0,0,1-.64,1.11H995.26V3.43h36V36a1.72,1.72,0,0,0,1.71,1.72,1.69,1.69,0,0,0,1.22-.51l5.65-5.65,5.65,5.65a1.71,1.71,0,0,0,2.43,0h0l5.65-5.65,5.65,5.65a1.72,1.72,0,0,0,2.93-1.21V3.43h36Z" transform="translate(0.01 0)"/></g><path id="Line_46" data-name="Line 46" class="cls-3" d="M0,135.57" transform="translate(0.01 0)"/><path id="Line_46-2" data-name="Line 46" class="cls-3" d="M125.84,135.57" transform="translate(0.01 0)"/><line id="Line_47" data-name="Line 47" class="cls-3" x1="538.6" y1="139" x2="182.5" y2="139"/><line id="Line_47-2" data-name="Line 47" class="cls-3" x1="120.72" y1="139" x2="0.01" y2="139"/><line id="Line_48" data-name="Line 48" class="cls-3" x1="1069.75" y1="139" x2="660.96" y2="139"/><line id="Line_49" data-name="Line 49" class="cls-3" x1="1196.72" y1="139.07" x2="1130.77" y2="139.07"/></g></g></g><path id="Path_18080" data-name="Path 18080" class="cls-4" d="M1196.72,137v39" transform="translate(0.01 0)"/><path id="Path_18080-2" data-name="Path 18080" class="cls-4" d="M2,137.75V176" transform="translate(0.01 0)"/><polyline id="newBlue" class="cls-5" points="1196.43 176 1196.43 139.07 604.52 139.07 604.52 176 604.52 139.07 2.5 138.5 2.5 176"/></g></svg>
